<mxfile host="app.diagrams.net" modified="2023-07-07T03:56:19.336Z" agent="Mozilla/5.0 (X11; Ubuntu; Linux x86_64; rv:109.0) Gecko/20100101 Firefox/114.0" etag="FE2XaPxs_uI6cZOOXR8i" version="21.6.1" type="device">
  <diagram name="Page-1" id="ZQ5VmoWNNRRXMtVw71k-">
    <mxGraphModel dx="2264" dy="1126" grid="1" gridSize="10" guides="1" tooltips="1" connect="1" arrows="1" fold="1" page="1" pageScale="1" pageWidth="827" pageHeight="1169" math="0" shadow="0">
      <root>
        <mxCell id="0" />
        <mxCell id="1" parent="0" />
        <mxCell id="-wSjBExOS1VSuUumW5mn-6" value="" style="rounded=0;whiteSpace=wrap;html=1;" parent="1" vertex="1">
          <mxGeometry x="-737" y="50" width="637" height="940" as="geometry" />
        </mxCell>
        <mxCell id="-wSjBExOS1VSuUumW5mn-1" value="Administrateur" style="shape=umlActor;verticalLabelPosition=bottom;verticalAlign=top;html=1;outlineConnect=0;" parent="1" vertex="1">
          <mxGeometry x="-799" y="690" width="30" height="60" as="geometry" />
        </mxCell>
        <mxCell id="-wSjBExOS1VSuUumW5mn-3" value="Gérer les utilisateurs" style="ellipse;whiteSpace=wrap;html=1;" parent="1" vertex="1">
          <mxGeometry x="-464" y="540" width="120" height="80" as="geometry" />
        </mxCell>
        <mxCell id="-wSjBExOS1VSuUumW5mn-7" value="Gérer les posts" style="ellipse;whiteSpace=wrap;html=1;" parent="1" vertex="1">
          <mxGeometry x="-464" y="720" width="120" height="80" as="geometry" />
        </mxCell>
        <mxCell id="-wSjBExOS1VSuUumW5mn-9" value="Gérer les commentaires" style="ellipse;whiteSpace=wrap;html=1;" parent="1" vertex="1">
          <mxGeometry x="-464" y="630" width="120" height="80" as="geometry" />
        </mxCell>
        <mxCell id="-wSjBExOS1VSuUumW5mn-23" value="&amp;lt;&amp;lt;include&amp;gt;&amp;gt;" style="endArrow=open;endSize=12;dashed=1;html=1;rounded=0;entryX=0.033;entryY=0.4;entryDx=0;entryDy=0;entryPerimeter=0;" parent="1" source="DyAR4yc6_iLk6z4lmpSY-13" target="DyAR4yc6_iLk6z4lmpSY-40" edge="1">
          <mxGeometry x="-0.0055" width="160" relative="1" as="geometry">
            <mxPoint x="-258" y="840" as="sourcePoint" />
            <mxPoint x="-378" y="930" as="targetPoint" />
            <mxPoint as="offset" />
          </mxGeometry>
        </mxCell>
        <mxCell id="-wSjBExOS1VSuUumW5mn-28" value="Diagramme de cas d&#39;utilisation" style="text;html=1;align=center;verticalAlign=middle;resizable=0;points=[];autosize=1;strokeColor=none;fillColor=none;" parent="1" vertex="1">
          <mxGeometry x="-508" y="20" width="190" height="30" as="geometry" />
        </mxCell>
        <mxCell id="-wSjBExOS1VSuUumW5mn-29" value="&amp;lt;&amp;lt;include&amp;gt;&amp;gt;" style="endArrow=open;endSize=12;dashed=1;html=1;rounded=0;exitX=1;exitY=0.5;exitDx=0;exitDy=0;" parent="1" source="DyAR4yc6_iLk6z4lmpSY-12" target="DyAR4yc6_iLk6z4lmpSY-1" edge="1">
          <mxGeometry x="0.0113" y="6" width="160" relative="1" as="geometry">
            <mxPoint x="-258" y="680" as="sourcePoint" />
            <mxPoint x="-344" y="880" as="targetPoint" />
            <mxPoint as="offset" />
          </mxGeometry>
        </mxCell>
        <mxCell id="-wSjBExOS1VSuUumW5mn-30" value="" style="endArrow=none;html=1;rounded=0;entryX=0;entryY=0.5;entryDx=0;entryDy=0;" parent="1" target="-wSjBExOS1VSuUumW5mn-3" edge="1">
          <mxGeometry width="50" height="50" relative="1" as="geometry">
            <mxPoint x="-758" y="710" as="sourcePoint" />
            <mxPoint x="-428" y="880" as="targetPoint" />
          </mxGeometry>
        </mxCell>
        <mxCell id="-wSjBExOS1VSuUumW5mn-31" value="" style="endArrow=none;html=1;rounded=0;entryX=-0.008;entryY=0.4;entryDx=0;entryDy=0;entryPerimeter=0;" parent="1" target="-wSjBExOS1VSuUumW5mn-9" edge="1">
          <mxGeometry width="50" height="50" relative="1" as="geometry">
            <mxPoint x="-758" y="710" as="sourcePoint" />
            <mxPoint x="-428" y="880" as="targetPoint" />
          </mxGeometry>
        </mxCell>
        <mxCell id="-wSjBExOS1VSuUumW5mn-33" value="" style="endArrow=none;html=1;rounded=0;entryX=0.008;entryY=0.425;entryDx=0;entryDy=0;entryPerimeter=0;" parent="1" target="-wSjBExOS1VSuUumW5mn-7" edge="1">
          <mxGeometry width="50" height="50" relative="1" as="geometry">
            <mxPoint x="-758" y="710" as="sourcePoint" />
            <mxPoint x="-428" y="880" as="targetPoint" />
          </mxGeometry>
        </mxCell>
        <mxCell id="DyAR4yc6_iLk6z4lmpSY-1" value="Valider" style="ellipse;whiteSpace=wrap;html=1;" parent="1" vertex="1">
          <mxGeometry x="-250" y="560" width="120" height="80" as="geometry" />
        </mxCell>
        <mxCell id="DyAR4yc6_iLk6z4lmpSY-7" value="Visiteur" style="shape=umlActor;verticalLabelPosition=bottom;verticalAlign=top;html=1;outlineConnect=0;" parent="1" vertex="1">
          <mxGeometry x="-799" y="80" width="30" height="60" as="geometry" />
        </mxCell>
        <mxCell id="DyAR4yc6_iLk6z4lmpSY-8" value="Utilisateur" style="shape=umlActor;verticalLabelPosition=bottom;verticalAlign=top;html=1;outlineConnect=0;" parent="1" vertex="1">
          <mxGeometry x="-799" y="380" width="30" height="60" as="geometry" />
        </mxCell>
        <mxCell id="DyAR4yc6_iLk6z4lmpSY-10" value="Consulter le blog" style="ellipse;whiteSpace=wrap;html=1;" parent="1" vertex="1">
          <mxGeometry x="-463" y="60" width="120" height="80" as="geometry" />
        </mxCell>
        <mxCell id="DyAR4yc6_iLk6z4lmpSY-11" value="Prendre contact" style="ellipse;whiteSpace=wrap;html=1;" parent="1" vertex="1">
          <mxGeometry x="-463" y="150" width="120" height="80" as="geometry" />
        </mxCell>
        <mxCell id="DyAR4yc6_iLk6z4lmpSY-12" value="Commenter" style="ellipse;whiteSpace=wrap;html=1;" parent="1" vertex="1">
          <mxGeometry x="-464" y="420" width="120" height="80" as="geometry" />
        </mxCell>
        <mxCell id="DyAR4yc6_iLk6z4lmpSY-13" value="S&#39;inscrire" style="ellipse;whiteSpace=wrap;html=1;" parent="1" vertex="1">
          <mxGeometry x="-464" y="240" width="120" height="80" as="geometry" />
        </mxCell>
        <mxCell id="DyAR4yc6_iLk6z4lmpSY-14" value="Voir la liste des posts" style="ellipse;whiteSpace=wrap;html=1;" parent="1" vertex="1">
          <mxGeometry x="-250" y="60" width="120" height="80" as="geometry" />
        </mxCell>
        <mxCell id="DyAR4yc6_iLk6z4lmpSY-15" value="Voir le détail d&#39;un post" style="ellipse;whiteSpace=wrap;html=1;" parent="1" vertex="1">
          <mxGeometry x="-250" y="140" width="120" height="80" as="geometry" />
        </mxCell>
        <mxCell id="DyAR4yc6_iLk6z4lmpSY-16" value="" style="endArrow=none;html=1;rounded=0;entryX=0;entryY=0.5;entryDx=0;entryDy=0;" parent="1" target="DyAR4yc6_iLk6z4lmpSY-14" edge="1">
          <mxGeometry width="50" height="50" relative="1" as="geometry">
            <mxPoint x="-340" y="100" as="sourcePoint" />
            <mxPoint x="-390" y="530" as="targetPoint" />
          </mxGeometry>
        </mxCell>
        <mxCell id="DyAR4yc6_iLk6z4lmpSY-17" value="" style="endArrow=none;html=1;rounded=0;entryX=0;entryY=0.5;entryDx=0;entryDy=0;exitX=1;exitY=0.5;exitDx=0;exitDy=0;" parent="1" source="DyAR4yc6_iLk6z4lmpSY-10" target="DyAR4yc6_iLk6z4lmpSY-15" edge="1">
          <mxGeometry width="50" height="50" relative="1" as="geometry">
            <mxPoint x="-440" y="580" as="sourcePoint" />
            <mxPoint x="-390" y="530" as="targetPoint" />
          </mxGeometry>
        </mxCell>
        <mxCell id="DyAR4yc6_iLk6z4lmpSY-18" value="" style="endArrow=none;html=1;rounded=0;entryX=0;entryY=0.5;entryDx=0;entryDy=0;" parent="1" target="DyAR4yc6_iLk6z4lmpSY-10" edge="1">
          <mxGeometry width="50" height="50" relative="1" as="geometry">
            <mxPoint x="-760" y="100" as="sourcePoint" />
            <mxPoint x="-390" y="530" as="targetPoint" />
          </mxGeometry>
        </mxCell>
        <mxCell id="DyAR4yc6_iLk6z4lmpSY-19" value="" style="endArrow=none;html=1;rounded=0;entryX=0.017;entryY=0.425;entryDx=0;entryDy=0;entryPerimeter=0;" parent="1" target="DyAR4yc6_iLk6z4lmpSY-11" edge="1">
          <mxGeometry width="50" height="50" relative="1" as="geometry">
            <mxPoint x="-760" y="100" as="sourcePoint" />
            <mxPoint x="-390" y="530" as="targetPoint" />
          </mxGeometry>
        </mxCell>
        <mxCell id="DyAR4yc6_iLk6z4lmpSY-21" value="" style="endArrow=none;html=1;rounded=0;entryX=0;entryY=0.5;entryDx=0;entryDy=0;" parent="1" target="DyAR4yc6_iLk6z4lmpSY-13" edge="1">
          <mxGeometry width="50" height="50" relative="1" as="geometry">
            <mxPoint x="-760" y="100" as="sourcePoint" />
            <mxPoint x="-390" y="530" as="targetPoint" />
          </mxGeometry>
        </mxCell>
        <mxCell id="DyAR4yc6_iLk6z4lmpSY-22" value="" style="endArrow=none;html=1;rounded=0;entryX=0;entryY=0.5;entryDx=0;entryDy=0;" parent="1" target="DyAR4yc6_iLk6z4lmpSY-12" edge="1">
          <mxGeometry width="50" height="50" relative="1" as="geometry">
            <mxPoint x="-760" y="400" as="sourcePoint" />
            <mxPoint x="-390" y="530" as="targetPoint" />
          </mxGeometry>
        </mxCell>
        <mxCell id="DyAR4yc6_iLk6z4lmpSY-23" value="Ajouter" style="ellipse;whiteSpace=wrap;html=1;" parent="1" vertex="1">
          <mxGeometry x="-250" y="740" width="120" height="80" as="geometry" />
        </mxCell>
        <mxCell id="DyAR4yc6_iLk6z4lmpSY-24" value="Désactiver" style="ellipse;whiteSpace=wrap;html=1;" parent="1" vertex="1">
          <mxGeometry x="-250" y="330" width="120" height="80" as="geometry" />
        </mxCell>
        <mxCell id="DyAR4yc6_iLk6z4lmpSY-25" value="Modifier" style="ellipse;whiteSpace=wrap;html=1;" parent="1" vertex="1">
          <mxGeometry x="-250" y="820" width="120" height="80" as="geometry" />
        </mxCell>
        <mxCell id="DyAR4yc6_iLk6z4lmpSY-26" value="Supprimer" style="ellipse;whiteSpace=wrap;html=1;" parent="1" vertex="1">
          <mxGeometry x="-250" y="900" width="120" height="80" as="geometry" />
        </mxCell>
        <mxCell id="DyAR4yc6_iLk6z4lmpSY-29" value="" style="endArrow=none;html=1;rounded=0;exitX=1;exitY=0.5;exitDx=0;exitDy=0;entryX=0;entryY=0.5;entryDx=0;entryDy=0;" parent="1" source="-wSjBExOS1VSuUumW5mn-7" target="DyAR4yc6_iLk6z4lmpSY-26" edge="1">
          <mxGeometry width="50" height="50" relative="1" as="geometry">
            <mxPoint x="-440" y="570" as="sourcePoint" />
            <mxPoint x="-230" y="430" as="targetPoint" />
          </mxGeometry>
        </mxCell>
        <mxCell id="DyAR4yc6_iLk6z4lmpSY-31" value="" style="endArrow=none;html=1;rounded=0;exitX=1;exitY=0.5;exitDx=0;exitDy=0;entryX=0;entryY=0.5;entryDx=0;entryDy=0;" parent="1" source="-wSjBExOS1VSuUumW5mn-7" target="DyAR4yc6_iLk6z4lmpSY-25" edge="1">
          <mxGeometry width="50" height="50" relative="1" as="geometry">
            <mxPoint x="-220" y="570" as="sourcePoint" />
            <mxPoint x="-170" y="520" as="targetPoint" />
          </mxGeometry>
        </mxCell>
        <mxCell id="DyAR4yc6_iLk6z4lmpSY-32" value="" style="endArrow=none;html=1;rounded=0;entryX=0;entryY=0.425;entryDx=0;entryDy=0;exitX=1;exitY=0.5;exitDx=0;exitDy=0;entryPerimeter=0;" parent="1" source="-wSjBExOS1VSuUumW5mn-7" target="DyAR4yc6_iLk6z4lmpSY-23" edge="1">
          <mxGeometry width="50" height="50" relative="1" as="geometry">
            <mxPoint x="-340" y="760" as="sourcePoint" />
            <mxPoint x="-170" y="520" as="targetPoint" />
          </mxGeometry>
        </mxCell>
        <mxCell id="DyAR4yc6_iLk6z4lmpSY-34" value="Supprimer" style="ellipse;whiteSpace=wrap;html=1;" parent="1" vertex="1">
          <mxGeometry x="-250" y="640" width="120" height="80" as="geometry" />
        </mxCell>
        <mxCell id="DyAR4yc6_iLk6z4lmpSY-38" value="" style="endArrow=none;html=1;rounded=0;exitX=1;exitY=0.5;exitDx=0;exitDy=0;entryX=0;entryY=0.5;entryDx=0;entryDy=0;" parent="1" source="-wSjBExOS1VSuUumW5mn-9" target="DyAR4yc6_iLk6z4lmpSY-34" edge="1">
          <mxGeometry width="50" height="50" relative="1" as="geometry">
            <mxPoint x="-180" y="690" as="sourcePoint" />
            <mxPoint x="-130" y="640" as="targetPoint" />
          </mxGeometry>
        </mxCell>
        <mxCell id="DyAR4yc6_iLk6z4lmpSY-40" value="Valider" style="ellipse;whiteSpace=wrap;html=1;" parent="1" vertex="1">
          <mxGeometry x="-250" y="250" width="120" height="80" as="geometry" />
        </mxCell>
        <mxCell id="DyAR4yc6_iLk6z4lmpSY-41" value="" style="endArrow=none;html=1;rounded=0;exitX=1;exitY=0.5;exitDx=0;exitDy=0;entryX=0;entryY=0.6;entryDx=0;entryDy=0;entryPerimeter=0;" parent="1" source="-wSjBExOS1VSuUumW5mn-9" target="DyAR4yc6_iLk6z4lmpSY-1" edge="1">
          <mxGeometry width="50" height="50" relative="1" as="geometry">
            <mxPoint x="-180" y="690" as="sourcePoint" />
            <mxPoint x="-130" y="640" as="targetPoint" />
          </mxGeometry>
        </mxCell>
        <mxCell id="DyAR4yc6_iLk6z4lmpSY-42" value="Supprimer" style="ellipse;whiteSpace=wrap;html=1;" parent="1" vertex="1">
          <mxGeometry x="-250" y="410" width="120" height="80" as="geometry" />
        </mxCell>
        <mxCell id="DyAR4yc6_iLk6z4lmpSY-43" value="" style="endArrow=none;html=1;rounded=0;entryX=0.05;entryY=0.688;entryDx=0;entryDy=0;entryPerimeter=0;" parent="1" source="-wSjBExOS1VSuUumW5mn-3" target="DyAR4yc6_iLk6z4lmpSY-40" edge="1">
          <mxGeometry width="50" height="50" relative="1" as="geometry">
            <mxPoint x="-180" y="550" as="sourcePoint" />
            <mxPoint x="-130" y="500" as="targetPoint" />
          </mxGeometry>
        </mxCell>
        <mxCell id="DyAR4yc6_iLk6z4lmpSY-44" value="" style="endArrow=none;html=1;rounded=0;exitX=0.725;exitY=-0.012;exitDx=0;exitDy=0;exitPerimeter=0;entryX=0.025;entryY=0.613;entryDx=0;entryDy=0;entryPerimeter=0;" parent="1" source="-wSjBExOS1VSuUumW5mn-3" target="DyAR4yc6_iLk6z4lmpSY-24" edge="1">
          <mxGeometry width="50" height="50" relative="1" as="geometry">
            <mxPoint x="-180" y="550" as="sourcePoint" />
            <mxPoint x="-130" y="500" as="targetPoint" />
          </mxGeometry>
        </mxCell>
        <mxCell id="DyAR4yc6_iLk6z4lmpSY-45" value="" style="endArrow=none;html=1;rounded=0;exitX=0.7;exitY=0;exitDx=0;exitDy=0;exitPerimeter=0;entryX=0.025;entryY=0.675;entryDx=0;entryDy=0;entryPerimeter=0;" parent="1" source="-wSjBExOS1VSuUumW5mn-3" target="DyAR4yc6_iLk6z4lmpSY-42" edge="1">
          <mxGeometry width="50" height="50" relative="1" as="geometry">
            <mxPoint x="-180" y="550" as="sourcePoint" />
            <mxPoint x="-130" y="500" as="targetPoint" />
          </mxGeometry>
        </mxCell>
        <mxCell id="DyAR4yc6_iLk6z4lmpSY-47" value="" style="endArrow=block;dashed=1;endFill=0;endSize=12;html=1;rounded=0;" parent="1" edge="1">
          <mxGeometry width="160" relative="1" as="geometry">
            <mxPoint x="-780" y="670" as="sourcePoint" />
            <mxPoint x="-780" y="460" as="targetPoint" />
          </mxGeometry>
        </mxCell>
        <mxCell id="DyAR4yc6_iLk6z4lmpSY-48" value="" style="endArrow=block;dashed=1;endFill=0;endSize=12;html=1;rounded=0;" parent="1" edge="1">
          <mxGeometry width="160" relative="1" as="geometry">
            <mxPoint x="-780" y="370" as="sourcePoint" />
            <mxPoint x="-780" y="160" as="targetPoint" />
          </mxGeometry>
        </mxCell>
        <mxCell id="7qorqvoqTSTRoTAPQZ9h-1" value="Se connecter" style="ellipse;whiteSpace=wrap;html=1;" vertex="1" parent="1">
          <mxGeometry x="-464" y="330" width="120" height="80" as="geometry" />
        </mxCell>
        <mxCell id="7qorqvoqTSTRoTAPQZ9h-2" value="" style="endArrow=none;html=1;rounded=0;entryX=0;entryY=0.5;entryDx=0;entryDy=0;" edge="1" parent="1" target="7qorqvoqTSTRoTAPQZ9h-1">
          <mxGeometry width="50" height="50" relative="1" as="geometry">
            <mxPoint x="-760" y="400" as="sourcePoint" />
            <mxPoint x="-390" y="550" as="targetPoint" />
          </mxGeometry>
        </mxCell>
      </root>
    </mxGraphModel>
  </diagram>
</mxfile>
